<svg xmlns="http://www.w3.org/2000/svg" viewBox="0 0 100 100" role="img" aria-label="Piedmont Environmental mark">
  <defs><clipPath id="rd"><circle cx="50" cy="50" r="45.5"/></clipPath></defs>
  <circle cx="50" cy="50" r="47" fill="#f4efe3"/>
  <g clip-path="url(#rd)">
    <rect x="0" y="0" width="100" height="100" fill="#eef0e4"/>
    <circle cx="72" cy="35" r="11" fill="#b4603a"/>
    <path d="M0 60 C 20 46 40 46 57 55 C 73 63 85 60 100 53 L100 100 L0 100 Z" fill="#88a17f"/>
    <path d="M0 75 C 18 65 38 67 53 73 C 70 80 83 78 100 72 L100 100 L0 100 Z" fill="#4a6b54"/>
    <path d="M32 74 L32 55" fill="none" stroke="#2f4a3c" stroke-width="2.6" stroke-linecap="round"/>
    <circle cx="32" cy="54" r="7" fill="#2f4a3c"/>
    <circle cx="26" cy="59" r="5" fill="#2f4a3c"/>
    <circle cx="38" cy="59" r="5" fill="#2f4a3c"/>
  </g>
  <circle cx="50" cy="50" r="47" fill="none" stroke="#2f4a3c" stroke-width="2.4"/>
</svg>
