<svg xmlns="http://www.w3.org/2000/svg" viewBox="0 0 520 132" role="img" aria-label="Piedmont Environmental">
  <!-- mark: simplified tree + roots in a circle -->
  <g transform="translate(66,66)">
    <circle r="58" fill="#2f4a3c"/>
    <circle r="58" fill="none" stroke="#88a17f" stroke-width="1.4" opacity="0.5"/>
    <g fill="#f4efe3">
      <circle cx="0"   cy="-24" r="10"/>
      <circle cx="-14" cy="-16" r="9"/>
      <circle cx="14"  cy="-16" r="9"/>
      <circle cx="-22" cy="-8" r="7"/>
      <circle cx="22"  cy="-8" r="7"/>
      <circle cx="0"   cy="-12" r="9"/>
    </g>
    <g stroke="#f4efe3" stroke-width="2.6" stroke-linecap="round" fill="none">
      <path d="M0 32 C -1 16 1 4 0 -12"/>
      <path d="M0 32 C -8 35 -16 37 -25 41"/>
      <path d="M0 32 C 8 35 16 37 25 41"/>
      <path d="M0 32 C -3 37 -6 40 -9 44"/>
      <path d="M0 32 C 3 37 6 40 9 44"/>
    </g>
  </g>
  <!-- wordmark -->
  <g font-family="Georgia, 'Times New Roman', serif">
    <text x="146" y="56" font-size="34" fill="#2f4a3c" letter-spacing="0.5">Piedmont</text>
    <text x="146" y="90" font-size="25" fill="#4a6b54" letter-spacing="1.5">Environmental</text>
    <line x1="148" y1="103" x2="500" y2="103" stroke="#b4603a" stroke-width="1.4"/>
    <text x="148" y="121" font-size="11" fill="#6b6256" letter-spacing="3" font-family="Helvetica, Arial, sans-serif">LANDSCAPE&#160;DESIGN&#160;&amp;&#160;CONSULTATION</text>
  </g>
</svg>
